<svg width="613" height="1031" viewBox="0 0 613 1031" fill="none" xmlns="http://www.w3.org/2000/svg">
<ellipse cx="193" cy="78" rx="9" ry="8" fill="#088ED1"/>
<path d="M235 323.5C216.167 321 177.8 316 175 316L194.5 335L225.5 396.5L253 376.5L249.5 345.5L235 323.5Z" fill="#1F1F1F"/>
<path d="M205 422C205.209 415.247 199.618 412.187 187.5 407C182.758 415.664 180.636 421.089 178.5 432.5C180.684 442.753 183.026 444.483 187.5 446.5C195.041 437.237 198.788 431.836 205 422Z" fill="#1F1F1F"/>
<path d="M341 414.5C340.002 404.954 340.783 400.461 348.5 396.5L374 414.5C388.661 437.88 392.436 450.351 398.5 472.5C392.522 472.719 388.611 471.434 379 462.5C368.009 448.175 362.756 439.69 358.5 422C354.753 415.694 350 415.06 341 414.5Z" fill="#1F1F1F"/>
<path d="M423 440C425.149 434.905 424.832 431.656 419 424.5C416.017 418.356 415.753 415.083 421.5 410C447.2 401.229 461.655 399.5 487.5 401C493.206 414.959 497.58 415.751 499.5 419C490.651 449.561 496.926 464.124 502 491.5C494.163 495.232 488.807 494.172 477.5 486.5C472.734 478.962 469.262 475.218 456.5 472.5V503.5L467.5 518.5C464.727 526.506 465.007 530.994 467.5 539C462.204 547.385 456.921 550.055 446 553.5C449.433 539.014 453.061 531.358 446 514C438.507 514.022 434.415 512.349 427.5 503.5C423.961 492.175 423.011 485.825 427.5 474.5C433.571 474.793 434.515 476.929 434 482.5C442.5 482.2 444.205 481.646 446 480.5C450.23 473.471 448.588 469.529 446 462.5C436.917 457.939 431.853 454.191 423 440Z" fill="#1F1F1F"/>
<path d="M344.5 508L282.5 462.5L263.5 446.5C260.586 453.026 260.469 456.541 263.5 462.5C273.965 472.022 279.089 477.324 282.5 486.5C279.714 498.997 280.182 506.003 282.5 518.5C272.588 527.912 265.175 530.972 249.5 533.5C245.245 546.778 246.308 554.222 249.5 567.5L316 539C322.952 526.327 328.021 519.381 344.5 508Z" fill="#1F1F1F"/>
<path d="M164 474.5C153.312 477.189 148.422 479.582 143 486.5V533.5L65.5 601.5C60.7978 599.152 58.3841 599.985 54.1741 601.44L54 601.5C31.0331 621.027 10.8534 634.878 4 648C10.3381 650.112 13.9266 651.271 27.5 648C86.4566 598.802 130.459 582.335 175 518.5C169.089 515.59 166.851 513.165 164 508C165.591 495.971 166.177 489.023 164 474.5Z" fill="#1F1F1F"/>
<path d="M321.5 567.5C326.866 561.141 329.934 557.599 341 553.5H348.5C361.919 546.011 369.476 545.266 383 548.5L387 575L332 629C345.843 643.701 351.654 651.817 358.5 666C344.843 676.68 338.768 684.632 316 684C295.725 667.319 289.296 652.41 275 629C274.386 622.441 274.943 618.744 282.5 612C296.712 616.967 303.944 616.517 316 612C319.695 596.167 322.017 587.54 321.5 567.5Z" fill="#1F1F1F"/>
<path d="M374 635C386.462 611.93 398.307 601.807 419 583.5L427.5 575C431.602 586.315 436.179 594.066 434 601.5C413.027 629.689 404.106 648.956 374 666C366.713 653.894 370.056 647.106 374 635Z" fill="#1F1F1F"/>
<path d="M398.5 674.5C412.85 666.078 419.418 660.415 427.5 648C452.851 644.701 465.236 645.994 487.5 648V666C467.374 682.5 456.565 692.186 427.5 700.5C419.616 695.766 414.378 693.263 398.5 690C396.419 684.652 396.511 681.227 398.5 674.5Z" fill="#1F1F1F"/>
<path d="M525.5 697.5C512.934 678.579 516.494 660.544 530 629C564.146 659.941 584.194 677.095 595 713C571.704 715.049 561.215 719.119 554.5 740C565.933 746.363 572.589 747.363 585 743.5C571.482 764.217 568.538 775.625 585 795C600.659 798.205 608.999 800.184 607.5 810.5C611.146 834.646 610.649 847.685 607.5 870.5C585.115 879.891 579.058 889.042 573.5 908.5C571.919 886.304 566.21 873.695 550 851C524.54 869.418 512.57 880.709 509.5 908.5C516.619 936.128 521.961 947.98 541 943.5C542.554 961.634 541.186 971.063 530 985C503.542 991.736 497.325 1004.13 487.5 1027.5C433.36 1016.08 404.243 1011.76 341 985C352.892 969.485 356.25 959.709 344.5 936.5C354.94 922.701 363.03 916.36 383 908.5C389.087 892.583 385.057 884.976 383 870.5C378.697 853.354 372.009 844.038 344.5 828.5C330.977 835.93 325.485 841.281 316 851C296.582 852.691 287.597 856.607 263.5 851C266.684 841.178 260.798 836.589 249.5 828.5C228.761 850.459 217.974 860.657 194.5 889.5C195.14 885.876 193.992 883.869 178.5 880.5C190.507 846.485 196.611 827.353 225.5 795C255.903 805.172 269.805 801.07 295 795C287.146 779.436 289.934 770.479 295 754.5C311.513 745.582 322.019 744.555 341 743.5C350.978 753.024 355.051 758.195 358.5 767V803C384.02 808.604 397.447 809.135 419 803C425.993 786.292 429.54 776.698 427.5 754.5C450.232 760.424 464.952 767.395 477.5 754.5C483.078 741.277 484.576 732.992 477.5 713C502.352 713.208 513.312 710.276 525.5 697.5Z" fill="#1F1F1F"/>
<path d="M235 323.5C216.167 321 177.8 316 175 316L194.5 335L225.5 396.5L253 376.5L249.5 345.5L235 323.5Z" stroke="#888888" stroke-width="5"/>
<path d="M205 422C205.209 415.247 199.618 412.187 187.5 407C182.758 415.664 180.636 421.089 178.5 432.5C180.684 442.753 183.026 444.483 187.5 446.5C195.041 437.237 198.788 431.836 205 422Z" stroke="#888888" stroke-width="5"/>
<path d="M341 414.5C340.002 404.954 340.783 400.461 348.5 396.5L374 414.5C388.661 437.88 392.436 450.351 398.5 472.5C392.522 472.719 388.611 471.434 379 462.5C368.009 448.175 362.756 439.69 358.5 422C354.753 415.694 350 415.06 341 414.5Z" stroke="#888888" stroke-width="5"/>
<path d="M423 440C425.149 434.905 424.832 431.656 419 424.5C416.017 418.356 415.753 415.083 421.5 410C447.2 401.229 461.655 399.5 487.5 401C493.206 414.959 497.58 415.751 499.5 419C490.651 449.561 496.926 464.124 502 491.5C494.163 495.232 488.807 494.172 477.5 486.5C472.734 478.962 469.262 475.218 456.5 472.5V503.5L467.5 518.5C464.727 526.506 465.007 530.994 467.5 539C462.204 547.385 456.921 550.055 446 553.5C449.433 539.014 453.061 531.358 446 514C438.507 514.022 434.415 512.349 427.5 503.5C423.961 492.175 423.011 485.825 427.5 474.5C433.571 474.793 434.515 476.929 434 482.5C442.5 482.2 444.205 481.646 446 480.5C450.23 473.471 448.588 469.529 446 462.5C436.917 457.939 431.853 454.191 423 440Z" stroke="#888888" stroke-width="5"/>
<path d="M344.5 508L282.5 462.5L263.5 446.5C260.586 453.026 260.469 456.541 263.5 462.5C273.965 472.022 279.089 477.324 282.5 486.5C279.714 498.997 280.182 506.003 282.5 518.5C272.588 527.912 265.175 530.972 249.5 533.5C245.245 546.778 246.308 554.222 249.5 567.5L316 539C322.952 526.327 328.021 519.381 344.5 508Z" stroke="#888888" stroke-width="5"/>
<path d="M164 474.5C153.312 477.189 148.422 479.582 143 486.5V533.5L65.5 601.5C60.7978 599.152 58.3841 599.985 54.1741 601.44L54 601.5C31.0331 621.027 10.8534 634.878 4 648C10.3381 650.112 13.9266 651.271 27.5 648C86.4566 598.802 130.459 582.335 175 518.5C169.089 515.59 166.851 513.165 164 508C165.591 495.971 166.177 489.023 164 474.5Z" stroke="#888888" stroke-width="5"/>
<path d="M321.5 567.5C326.866 561.141 329.934 557.599 341 553.5H348.5C361.919 546.011 369.476 545.266 383 548.5L387 575L332 629C345.843 643.701 351.654 651.817 358.5 666C344.843 676.68 338.768 684.632 316 684C295.725 667.319 289.296 652.41 275 629C274.386 622.441 274.943 618.744 282.5 612C296.712 616.967 303.944 616.517 316 612C319.695 596.167 322.017 587.54 321.5 567.5Z" stroke="#888888" stroke-width="5"/>
<path d="M374 635C386.462 611.93 398.307 601.807 419 583.5L427.5 575C431.602 586.315 436.179 594.066 434 601.5C413.027 629.689 404.106 648.956 374 666C366.713 653.894 370.056 647.106 374 635Z" stroke="#888888" stroke-width="5"/>
<path d="M398.5 674.5C412.85 666.078 419.418 660.415 427.5 648C452.851 644.701 465.236 645.994 487.5 648V666C467.374 682.5 456.565 692.186 427.5 700.5C419.616 695.766 414.378 693.263 398.5 690C396.419 684.652 396.511 681.227 398.5 674.5Z" stroke="#888888" stroke-width="5"/>
<path d="M525.5 697.5C512.934 678.579 516.494 660.544 530 629C564.146 659.941 584.194 677.095 595 713C571.704 715.049 561.215 719.119 554.5 740C565.933 746.363 572.589 747.363 585 743.5C571.482 764.217 568.538 775.625 585 795C600.659 798.205 608.999 800.184 607.5 810.5C611.146 834.646 610.649 847.685 607.5 870.5C585.115 879.891 579.058 889.042 573.5 908.5C571.919 886.304 566.21 873.695 550 851C524.54 869.418 512.57 880.709 509.5 908.5C516.619 936.128 521.961 947.98 541 943.5C542.554 961.634 541.186 971.063 530 985C503.542 991.736 497.325 1004.13 487.5 1027.5C433.36 1016.08 404.243 1011.76 341 985C352.892 969.485 356.25 959.709 344.5 936.5C354.94 922.701 363.03 916.36 383 908.5C389.087 892.583 385.057 884.976 383 870.5C378.697 853.354 372.009 844.038 344.5 828.5C330.977 835.93 325.485 841.281 316 851C296.582 852.691 287.597 856.607 263.5 851C266.684 841.178 260.798 836.589 249.5 828.5C228.761 850.459 217.974 860.657 194.5 889.5C195.14 885.876 193.992 883.869 178.5 880.5C190.507 846.485 196.611 827.353 225.5 795C255.903 805.172 269.805 801.07 295 795C287.146 779.436 289.934 770.479 295 754.5C311.513 745.582 322.019 744.555 341 743.5C350.978 753.024 355.051 758.195 358.5 767V803C384.02 808.604 397.447 809.135 419 803C425.993 786.292 429.54 776.698 427.5 754.5C450.232 760.424 464.952 767.395 477.5 754.5C483.078 741.277 484.576 732.992 477.5 713C502.352 713.208 513.312 710.276 525.5 697.5Z" stroke="#888888" stroke-width="5"/>
<path d="M170 25.4592C177.182 28.1301 181.34 28.155 189 25.4592C187.962 20.3496 188.747 18.4779 193 17.2092C198.284 15.8905 200.104 14.9713 201 12.9592C213.141 10.826 219.857 10.0884 231 12.9592C238.998 7.08257 246 7.4592 255.5 3.95919C265 0.459171 268.36 7.24235 270 12.9592C256.231 15.2125 248.913 16.7683 244 25.4592C237.468 38.416 240.522 41.9949 244 49.4592C257.376 58.0993 267.39 66.2141 287 82.9592C272.978 93.2152 273.248 102.294 270 116.959C261.003 128.245 250.356 135.773 231.804 148.89L231 149.459C235.229 157.756 247 166.459 244 172.459C241 178.459 231 191.959 231 191.959C234.952 219.279 241.619 233.835 255.5 259.459C265.417 265.443 270.8 268.11 279 267.459C286.622 265.192 288.83 262.631 287 254.459C294.725 250.076 298.091 250.92 303.5 254.459L314 267.459L324.5 289.459C332.132 289.091 341.5 285.459 341.5 285.459C339.489 278.43 339.261 274.489 341.5 267.459C360.494 273.762 368.378 278.484 376.5 289.459C381.334 297.233 382.297 301.14 381.5 307.459C367.753 304.885 362.805 305.66 354.5 307.459C373.166 330.095 383.824 340.799 403.5 352.959C396.741 369.924 393.757 379.572 389.5 396.959C383.862 397.552 381.69 396.652 381.5 390.459V374.959C375.67 364.921 370.176 359.975 354.5 352.959C360.305 346.726 359.864 342.103 354.5 332.459C343.065 327.495 336.402 322.687 324.5 313.959V307.459C308.439 291.749 297.767 289.891 279 285.459L298.5 307.459V321.959C294.651 324.245 292.008 323.8 287 321.959V307.459C275.687 293.079 268.837 286.684 255.5 278.959C239.022 282.257 232.467 286.738 220.5 294.459C220.5 294.459 170.242 286.334 170 278.959C169.758 271.584 171.074 267.324 176.5 259.459L201 239.959L200.848 239.483C197.523 229.083 195.613 223.107 201 211.459C193.989 207.729 188.607 207.75 176.5 211.459C179.727 223.928 181.1 230.737 176.5 239.959L158.5 224.459L130 155.959C130.082 148.676 131.619 145.225 140 141.459L170 165.959C175.657 163.837 178.484 162.45 176.5 155.959C181.351 147.491 184.467 142.85 176.5 130.959L170 123.459C165.009 103.738 166.553 92.6806 170 72.9592C163.26 70.5194 160.026 68.607 158.5 60.9592C160.892 41.7979 163.706 34.7702 170 25.4592Z" fill="#1F1F1F" stroke="#888888" stroke-width="5"/>
<path d="M84.5 589C20.1177 406.734 27.4955 320.182 213 255.5C116.855 192.513 85.485 155.106 191.5 71.5M222 97.5C580.091 347.007 610.704 512.671 382.5 813M318.5 619.5C137.711 622.485 147.526 729.05 211 855M239 353.5C344.536 317.55 402.268 302.801 462 439M382.5 958C424.409 819.172 473.831 803.514 583 826M301.5 521C372.843 524.606 393.577 545.612 399.5 619.5M222 255.5C289.48 228.375 324.168 237.101 352 288.5M553 674.5C490.932 704.165 465.656 726.52 479 801.5M191.5 418.5C248.386 412.417 273.785 419.28 289.5 478" stroke="#00A33E" stroke-width="3"/>
<ellipse cx="216" cy="256" rx="9" ry="8" fill="#088ED1"/>
<ellipse cx="382" cy="816" rx="9" ry="8" fill="#088ED1"/>
<ellipse cx="209" cy="849" rx="9" ry="8" fill="#088ED1"/>
<ellipse cx="481" cy="800" rx="9" ry="8" fill="#088ED1"/>
<ellipse cx="385" cy="958" rx="9" ry="8" fill="#088ED1"/>
<ellipse cx="580" cy="827" rx="9" ry="8" fill="#088ED1"/>
<ellipse cx="553" cy="676" rx="9" ry="8" fill="#088ED1"/>
<ellipse cx="316" cy="618" rx="9" ry="8" fill="#088ED1"/>
<ellipse cx="400" cy="618" rx="9" ry="8" fill="#088ED1"/>
<ellipse cx="463" cy="439" rx="9" ry="8" fill="#088ED1"/>
<ellipse cx="353" cy="286" rx="9" ry="8" fill="#088ED1"/>
<ellipse cx="83" cy="588" rx="9" ry="8" fill="#088ED1"/>
<ellipse cx="293" cy="479" rx="9" ry="8" fill="#088ED1"/>
<ellipse cx="298" cy="520" rx="9" ry="8" fill="#088ED1"/>
<ellipse cx="191" cy="417" rx="9" ry="8" fill="#088ED1"/>
<ellipse cx="234" cy="352" rx="9" ry="8" fill="#088ED1"/>
<ellipse cx="221" cy="98" rx="9" ry="8" fill="#088ED1"/>
<ellipse cx="191" cy="73" rx="9" ry="8" fill="#088ED1"/>
</svg>
